<svg width="31" height="28" viewBox="0 0 31 28" fill="none" xmlns="http://www.w3.org/2000/svg">
<path d="M9.5 0.5C9.89782 0.5 10.2794 0.658035 10.5607 0.93934C10.842 1.22064 11 1.60218 11 2C11 2.39782 10.842 2.77936 10.5607 3.06066C10.2794 3.34196 9.89782 3.5 9.5 3.5H7.6145L4.0145 15.5H12.5C12.8978 15.5 13.2794 15.658 13.5607 15.9393C13.842 16.2206 14 16.6022 14 17V18.5H17V17C17 16.6022 17.158 16.2206 17.4393 15.9393C17.7206 15.658 18.1022 15.5 18.5 15.5H26.984L23.384 3.5H21.5C21.1326 3.49995 20.778 3.36507 20.5034 3.12093C20.2289 2.87679 20.0535 2.54038 20.0105 2.1755L20 2C20 1.60218 20.158 1.22064 20.4393 0.93934C20.7206 0.658035 21.1022 0.5 21.5 0.5H24.5C24.8227 0.499978 25.1368 0.604024 25.3957 0.796692C25.6545 0.98936 25.8444 1.26038 25.937 1.5695L30.452 16.6235L30.485 16.7915L30.497 16.9115L30.5 20.75C30.4995 22.4749 29.8388 24.1341 28.6533 25.3871C27.4679 26.6401 25.8478 27.3917 24.1256 27.4877C22.4034 27.5837 20.7098 27.0167 19.3925 25.9032C18.0752 24.7897 17.2341 23.2141 17.042 21.5H13.958C13.7659 23.2141 12.9248 24.7897 11.6075 25.9032C10.2902 27.0167 8.59662 27.5837 6.87441 27.4877C5.15221 27.3917 3.53208 26.6401 2.34666 25.3871C1.16124 24.1341 0.500465 22.4749 0.5 20.75V16.973L0.506 16.8665L0.527 16.712L0.554 16.598L5.063 1.568C5.15588 1.25915 5.34583 0.988471 5.60468 0.796091C5.86353 0.603711 6.17749 0.499881 6.5 0.5H9.5Z" fill="white"/>
</svg>
