<svg width="20" height="20" viewBox="0 0 20 20" fill="none" xmlns="http://www.w3.org/2000/svg">
<path d="M15.7245 6.20739C15.7245 5.26042 15.4168 4.49337 14.8012 3.90625C14.1857 3.31913 13.376 3.02557 12.3722 3.02557H7.82679V9.3892H12.3722C13.376 9.3892 14.1857 9.09564 14.8012 8.50852C15.4168 7.9214 15.7245 7.15436 15.7245 6.20739ZM19.091 6.20739C19.091 8.03504 18.492 9.52652 17.2941 10.6818C16.0962 11.8371 14.5503 12.4148 12.6563 12.4148H7.82679V14.0909H15.0001C15.1327 14.0909 15.2416 14.1335 15.3268 14.2188C15.412 14.304 15.4546 14.4129 15.4546 14.5455V16.3636C15.4546 16.4962 15.412 16.6051 15.3268 16.6903C15.2416 16.7756 15.1327 16.8182 15.0001 16.8182H7.82679V19.5455C7.82679 19.678 7.78181 19.7869 7.69185 19.8722C7.60189 19.9574 7.49535 20 7.37225 20H5.00009C4.86751 20 4.75861 19.9574 4.67338 19.8722C4.58816 19.7869 4.54554 19.678 4.54554 19.5455V16.8182H1.36373C1.23115 16.8182 1.12225 16.7756 1.03702 16.6903C0.951793 16.6051 0.90918 16.4962 0.90918 16.3636V14.5455C0.90918 14.4129 0.951793 14.304 1.03702 14.2188C1.12225 14.1335 1.23115 14.0909 1.36373 14.0909H4.54554V12.4148H1.36373C1.23115 12.4148 1.12225 12.3722 1.03702 12.2869C0.951793 12.2017 0.90918 12.0928 0.90918 11.9602V9.84375C0.90918 9.72064 0.951793 9.61411 1.03702 9.52415C1.12225 9.43419 1.23115 9.3892 1.36373 9.3892H4.54554V0.454545C4.54554 0.32197 4.58816 0.213068 4.67338 0.127841C4.75861 0.0426136 4.86751 0 5.00009 0H12.6563C14.5503 0 16.0962 0.577652 17.2941 1.73295C18.492 2.88826 19.091 4.37973 19.091 6.20739Z" fill="white"/>
</svg>
