<svg width="24" height="23" viewBox="0 0 24 23" fill="none" xmlns="http://www.w3.org/2000/svg">
<path d="M10.9323 0.74536C11.3034 0.0181092 12.3426 0.0181086 12.7137 0.74536L15.6387 6.47679C15.784 6.76151 16.0566 6.95961 16.3723 7.00982L22.7271 8.0205C23.5334 8.14874 23.8545 9.13703 23.2776 9.71474L18.7305 14.2676C18.5046 14.4938 18.4005 14.8143 18.4503 15.1301L19.4528 21.4862C19.58 22.2927 18.7393 22.9035 18.0116 22.5333L12.2764 19.6157C11.9915 19.4707 11.6545 19.4707 11.3696 19.6157L5.6344 22.5333C4.90667 22.9035 4.06598 22.2927 4.19319 21.4862L5.19571 15.1301C5.24552 14.8143 5.14137 14.4938 4.91549 14.2676L0.368425 9.71474C-0.208543 9.13703 0.112571 8.14874 0.918917 8.0205L7.27369 7.00982C7.58938 6.95961 7.86204 6.76152 8.00734 6.4768L10.9323 0.74536Z" fill="#FF6933"/>
</svg>
