<svg width="199" height="47" viewBox="0 0 199 47" fill="none" xmlns="http://www.w3.org/2000/svg">
<g clip-path="url(#clip0_11_983)">
<path fill-rule="evenodd" clip-rule="evenodd" d="M44.206 35.0029L48.0464 27.9019L49.3384 25.5074L47.3162 25.2211C46.6255 25.1209 45.949 25.0207 45.2869 24.9169V0.510742L27.5164 8.96824C27.3482 9.04341 27.18 9.11857 27.0118 9.19373C26.5787 9.38343 26.16 9.56954 25.7412 9.76281L25.2902 9.54806L6.3029 0.514325V12.7192C3.04231 14.5588 1.35295 16.6634 1.27779 18.9827C1.20263 21.3735 2.89198 23.7 6.3029 25.9083V27.8017C6.3029 29.9062 7.30148 31.932 8.96936 33.2133L25.7949 46.1412L38.3469 36.4954L38.4149 36.4345C39.9253 36.7531 41.3391 37.0394 42.9389 37.3544L44.2095 35.0065L44.206 35.0029Z" fill="#9C9D9D"/>
<path fill-rule="evenodd" clip-rule="evenodd" d="M43.7584 34.7631L48.5473 25.9083C47.7706 25.7973 46.9975 25.6864 46.2209 25.5718L44.7785 25.3535V1.31243L27.731 9.42276H27.7203L26.575 9.93457C26.3531 10.0348 26.1455 10.1278 25.9486 10.2173L25.7339 10.3175C19.4274 7.31464 13.1174 4.31533 6.80741 1.31243V13.0091L6.54613 13.1558C4.97489 14.0434 3.78662 14.9883 2.98489 15.9869C2.21538 16.9461 1.81093 17.9518 1.77872 18.9969C1.74293 20.0743 2.11516 21.1516 2.88825 22.2146C3.68998 23.3205 4.9212 24.4122 6.57476 25.4823L6.80741 25.6327V27.798C6.80741 28.7751 7.03647 29.7308 7.46239 30.5898C7.88831 31.4523 8.50392 32.2183 9.27701 32.8124L25.7947 45.504L38.0139 36.116L38.2752 35.8905L38.5186 35.9406C39.3418 36.1124 40.0683 36.2663 40.7412 36.4023C41.253 36.5061 41.8937 36.6349 42.6704 36.7853L43.762 34.7666L43.7584 34.7631ZM48.3182 28.4602L43.2037 37.9198L42.8386 37.8483C42.18 37.7194 41.4356 37.5691 40.5408 37.3901C39.8214 37.2434 39.1628 37.1074 38.54 36.9785L25.7911 46.7746L8.65782 33.6106C7.75946 32.9198 7.04363 32.0322 6.55329 31.0372C6.05937 30.0386 5.79093 28.9291 5.79093 27.798V26.1767C4.14811 25.0851 2.90257 23.9612 2.06505 22.8087C1.15953 21.5596 0.722875 20.2747 0.765825 18.9647C0.808775 17.6906 1.2848 16.4844 2.1939 15.3534C3.02784 14.3154 4.22685 13.3383 5.78735 12.4257V-0.291016L25.7375 9.20443L26.1562 9.01474L27.2944 8.51008L45.7878 -0.291016V24.4802L46.364 24.5661L47.3841 24.7164L50.1257 25.1065L48.3147 28.4566L48.3182 28.4602Z" fill="white"/>
<path fill-rule="evenodd" clip-rule="evenodd" d="M34.4276 30.1707C37.2623 30.8078 40.3189 31.4521 43.5973 32.0927L42.2337 34.6124C25.7231 31.3161 14.295 27.787 8.2319 24.1077C5.29343 22.3253 3.76872 20.5787 3.81882 19.0575C3.86535 17.6187 5.39364 16.0439 8.12094 14.6194C8.30348 14.5263 8.49318 14.4297 8.68287 14.3366L8.84393 14.2615C12.1081 12.7046 16.7288 11.3946 21.9794 10.5428L25.0395 10.0488L25.0181 10.0954C21.7467 11.6702 17.5949 14.1183 18.1067 17.429C18.504 20.006 21.6501 22.0783 27.9995 23.9574C32.4412 25.2709 38.3575 26.4699 46.0204 27.6081L44.9216 29.641C42.1335 29.1364 39.0304 28.5494 35.8915 27.8944L34.4276 30.1743V30.1707Z" fill="#293241"/>
<path fill-rule="evenodd" clip-rule="evenodd" d="M8.84766 27.3721C14.4848 30.2891 23.2966 33.088 35.1543 35.7294L25.7913 42.9234L10.5191 31.1874C9.474 30.3821 8.84766 29.1151 8.84766 27.798V27.3721Z" fill="#FF6933"/>
<path fill-rule="evenodd" clip-rule="evenodd" d="M8.84766 11.4699V4.54785L17.706 8.76407C14.3345 9.4978 11.3137 10.4212 8.84766 11.4735V11.4699Z" fill="#FF6933"/>
<path fill-rule="evenodd" clip-rule="evenodd" d="M42.7348 24.5123C36.9617 23.5638 32.2659 22.5581 28.7261 21.513C21.7217 19.4442 20.7303 17.6976 20.6301 17.0426C20.5621 16.6131 20.7554 15.0634 25.7411 12.5866L28.5865 11.2802C29.4276 10.9044 30.3045 10.5035 31.2816 9.99888L42.7384 4.54785V24.5123H42.7348Z" fill="#FF6933"/>
<path fill-rule="evenodd" clip-rule="evenodd" d="M21.2098 11.4807L21.1669 11.3447C18.819 11.9854 16.7932 12.6261 15.0859 13.2739L15.9736 13.6067C17.3766 12.8981 19.1232 12.1894 21.2098 11.4807ZM23.0209 24.7271L21.6501 26.8567C24.4561 27.7193 27.7024 28.589 31.3782 29.4659L32.8492 27.2397C29.7926 26.5596 26.7826 25.8223 24.0696 25.0385C23.7117 24.9347 23.3645 24.8309 23.0245 24.7271H23.0209ZM19.5241 26.1803L20.9235 24.0614C18.4682 23.2382 16.4997 22.4114 15.0215 21.5846L12.8776 23.5102C14.005 24.0829 15.3329 24.6627 16.8612 25.2389C17.688 25.5503 18.5756 25.8653 19.5241 26.1803ZM8.12094 18.8538C8.09589 18.2095 8.33211 17.5796 8.83319 16.9532L11.7681 17.3183C11.7037 17.5545 11.6786 17.7943 11.6965 18.0306C11.7609 18.8717 12.3479 19.7128 13.4467 20.5574L11.1775 22.5474C9.19468 21.2983 8.17105 20.0599 8.12094 18.8502V18.8538ZM9.90693 15.9224L12.3193 16.2517C12.8848 15.518 13.8332 14.7807 15.1575 14.0398L14.1053 13.6604C12.2871 14.4049 10.8912 15.1601 9.90335 15.9224H9.90693Z" fill="#9C9D9D"/>
<path fill-rule="evenodd" clip-rule="evenodd" d="M31.7291 36.248L25.4728 38.0662L16.5894 33.918L25.6732 40.5895L31.7291 36.248Z" fill="white"/>
<path fill-rule="evenodd" clip-rule="evenodd" d="M26.7863 15.4285C28.8049 13.8823 35.0971 10.2173 38.7657 8.30957C27.9638 12.5222 21.4033 16.2302 23.3217 17.7585C25.2401 19.2868 33.4936 21.6096 40.3691 22.5509C31.8329 20.1959 24.7677 16.9782 26.7863 15.4285Z" fill="white"/>
<path fill-rule="evenodd" clip-rule="evenodd" d="M77.5992 38.4702H84.0131L92.084 20.2846H85.1119C84.736 20.2846 84.3065 20.4385 84.0703 20.6461C84.0596 20.6532 69.6571 32.629 62.6313 38.4702H68.6943C69.0594 38.4702 69.4853 38.3234 69.7287 38.1158C69.9506 37.9226 67.8533 39.6728 82.4347 27.5717C80.1154 32.7972 80.2049 32.5968 77.5957 38.4702H77.5992ZM170.818 20.2846H198.739C198.388 20.6425 192.83 23.1407 192.511 23.4593L192.468 23.5559H172.876C171.19 23.5559 169.286 24.6046 168.821 25.6748C167.056 29.7442 167.661 28.3627 167.525 28.6562C167.146 29.5474 167.876 30.2203 169.222 30.2203H182.597C183.209 28.8065 182.815 29.7192 184.354 26.1615C186.616 25.5352 190.031 24.5939 192.289 23.9675L185.983 38.4988H179.952C179.429 38.4988 179.132 38.2125 179.236 37.9762L180.829 34.3005C181.033 33.828 180.7 33.4952 180.016 33.4952H172.937C172.207 33.4916 171.487 33.8173 171.179 33.9569L170.954 34.0571C170.61 34.2826 163.992 38.6241 163.688 38.8209H155.338C155.234 38.8209 155.177 38.7994 155.148 38.7744L162.07 34.4222C162.947 33.871 163.209 33.1623 162.568 32.901C160.521 32.0778 159.697 30.5352 160.417 28.8745L162.382 24.3469C163.452 21.8844 167.317 20.2846 170.811 20.2846H170.818ZM128.251 38.463C129.357 37.3535 145.381 21.2867 146.38 20.2846H140.091C139.701 20.2846 139.232 20.4599 138.999 20.6926C128.255 31.4944 130.724 29.0248 121.24 38.463H128.248H128.251ZM150.861 20.2846C152.07 31.5982 151.766 28.8817 152.894 38.463C144.83 38.463 145.431 38.4702 145.313 38.4415L144.049 27.135C145.692 23.3698 145.023 24.9017 147.042 20.2846H150.861ZM88.9201 38.4702C88.3975 38.4702 88.104 38.1838 88.2078 37.9476L96.0425 20.2846H102.041C102.564 20.2846 102.857 20.5709 102.753 20.8071L98.6696 30.0127C98.2652 30.9289 99.8042 31.1043 101.218 30.3097C101.318 30.2525 100.499 30.7607 117.242 20.3132C117.421 20.2667 119.976 20.2882 130.692 20.2882C130.46 20.5208 124.815 23.0835 124.464 23.4342C124.128 24.1966 118.165 37.6362 117.797 38.4702H111.798C111.275 38.4702 110.982 38.1838 111.086 37.9476L114.704 29.7836C119.128 24.8086 117.725 26.387 121.53 22.1099C106.98 31.4443 113.24 27.5001 95.6059 38.4415C95.4448 38.4809 95.8779 38.4702 88.9236 38.4702H88.9201ZM62.5991 38.4702C61.6399 38.4702 61.5862 38.4773 61.4717 38.4451C58.3184 28.6204 59.2741 31.609 57.3771 25.6354C57.1588 26.6232 55.745 33.012 55.5124 34.0535L53.7837 37.9476C53.6799 38.1838 53.1323 38.4702 52.6097 38.4702H47.1372C47.2338 38.2483 53.6799 23.7313 53.798 23.4593C53.7658 23.155 50.4443 21.0827 50.3584 20.2846H63.1503L65.9993 30.9146C64.0164 35.317 65.1403 32.8187 62.5955 38.4702H62.5991Z" fill="white"/>
<path fill-rule="evenodd" clip-rule="evenodd" d="M51.0063 15.3033H54.5855L56.171 13.4529H62.8605L63.2971 15.3033H66.751L64.378 4.92736H60.1475L51.0099 15.3033H51.0063ZM57.9928 11.2911L61.5183 7.15358L62.4417 11.2911H57.9928ZM68.1934 15.3033H77.993C79.1921 15.3033 79.9115 15.1959 80.4698 14.9454C81.4004 14.5087 82.0697 13.6855 82.4598 12.4579C82.7676 11.4951 82.7354 10.8544 82.3524 10.4965C82.0589 10.246 81.6796 10.1243 80.7705 10.0455C81.5579 9.92025 81.9015 9.81288 82.2916 9.56235C82.8571 9.20443 83.2758 8.56734 83.5693 7.6475C83.9559 6.43418 83.827 5.71835 83.1363 5.29959C82.6746 5.03474 82.0733 4.92736 80.8599 4.92736H71.4969L68.1934 15.3033ZM73.2614 9.06484L73.8448 7.22874H79.0704C79.6752 7.22874 79.8291 7.24306 80.0081 7.30748C80.3123 7.43275 80.4125 7.74414 80.2801 8.1629C80.1656 8.52081 79.9222 8.79998 79.6287 8.93957C79.3961 9.03263 79.1706 9.06484 78.5621 9.06484H73.2578H73.2614ZM72.0087 12.9983L72.6136 11.1014H78.1827C78.8842 11.1014 79.0024 11.1157 79.1706 11.1801C79.4748 11.3054 79.5607 11.6168 79.4175 12.0677C79.278 12.5044 78.9916 12.8158 78.648 12.9231C78.4261 12.984 78.2973 13.0019 77.6602 13.0019H72.0123L72.0087 12.9983ZM87.8715 15.2997H91.0283L93.5158 7.49002H98.1364L98.9525 4.92378H86.5543L85.7383 7.49002H90.359L87.8715 15.2997ZM107.682 4.81641C110.667 4.81641 111.576 4.84862 112.267 4.97031C113.774 5.26737 114.289 6.09058 113.978 7.75487C113.906 8.17363 113.67 9.01473 113.269 10.2746C112.471 12.78 111.884 13.7893 110.764 14.5194C109.973 15.0492 109.024 15.2961 107.496 15.3605C106.927 15.3928 105.538 15.4071 104.525 15.4071C102.052 15.4071 100.806 15.3605 100.223 15.2353C99.135 15.0313 98.6053 14.5982 98.4621 13.8358C98.3011 13.0735 98.4514 12.3111 99.1744 10.0419C99.7291 8.29891 99.8974 7.86583 100.309 7.16432C100.957 6.05837 101.751 5.46781 103.026 5.12779C103.978 4.87725 104.944 4.81641 107.682 4.81641ZM107.124 7.35043C104.804 7.35043 104.142 7.42917 103.645 7.72266C103.122 8.04836 102.832 8.56377 102.356 10.0563C101.869 11.581 101.816 12.1393 102.102 12.4686C102.413 12.8122 102.907 12.873 105.288 12.873C108.011 12.873 108.598 12.78 109.117 12.2825C109.532 11.9103 109.779 11.3805 110.22 9.99542C111.054 7.38265 111.014 7.35043 107.127 7.35043H107.124ZM133.881 15.2997L137.185 4.92378H134.028L131.541 12.7335H126.408L128.896 4.92378H125.739L123.251 12.7335H118.133L120.621 4.92378H117.464L114.16 15.2997H133.885H133.881ZM136.573 15.2997L139.876 4.92378H143.033L141.798 8.7964H143.448L148.974 4.92378H153.312L145.721 10.0563L150.585 15.2997H145.997L142.582 11.3161H140.997L139.73 15.2997H136.573ZM161.799 4.81641C159.06 4.81641 158.094 4.87725 157.142 5.12779C155.868 5.47139 155.07 6.06194 154.426 7.16432C154.017 7.86583 153.846 8.29891 153.291 10.0419C152.568 12.3111 152.418 13.0735 152.579 13.8358C152.725 14.5982 153.255 15.0348 154.343 15.2353C154.927 15.3605 156.172 15.4071 158.645 15.4071C159.655 15.4071 161.047 15.3928 161.616 15.3605C163.144 15.2997 164.096 15.0492 164.884 14.5194C166.004 13.7893 166.591 12.7764 167.389 10.2746C167.79 9.01473 168.026 8.17363 168.098 7.75487C168.409 6.09058 167.894 5.26737 166.387 4.97031C165.696 4.84504 164.787 4.81641 161.802 4.81641H161.799ZM161.24 7.35043C165.127 7.35043 165.166 7.38265 164.333 9.99542C163.892 11.3805 163.645 11.9103 163.23 12.2825C162.715 12.78 162.124 12.873 159.4 12.873C157.02 12.873 156.526 12.8122 156.215 12.4686C155.929 12.1429 155.986 11.581 156.469 10.0563C156.945 8.56377 157.232 8.04836 157.758 7.72266C158.255 7.4256 158.917 7.35043 161.237 7.35043H161.24ZM174.512 7.49002L173.653 10.1815C172.948 12.3899 172.393 13.3562 171.369 14.1794C170.345 15.0026 169.2 15.3784 167.736 15.3784H167.457L168.241 12.9196C168.785 12.9196 169.3 12.6225 169.694 12.0642C169.977 11.6597 170.159 11.241 170.456 10.3068L172.171 4.92378H184.862L181.559 15.2997H178.402L180.89 7.49002H174.512ZM183.019 15.2997H186.598L188.184 13.4493H194.873L195.31 15.2997H198.764L196.391 4.92378H192.16L183.023 15.2997H183.019ZM190.006 11.2875L193.531 7.15L194.455 11.2875H190.006Z" fill="#FF6933"/>
<path fill-rule="evenodd" clip-rule="evenodd" d="M87.1268 30.2148H81.8154L78.3759 37.9637H83.6873L87.1268 30.2148ZM78.4618 30.2148L73.9019 33.998C72.932 34.7317 71.5003 35.9057 69.4924 37.6559L69.4316 37.706L69.3063 37.799C69.2455 37.8348 69.1703 37.867 69.0916 37.8957C68.9591 37.9422 68.8196 37.9673 68.6943 37.9673H64.0307L73.3507 30.2184H78.4546L78.4618 30.2148ZM65.2905 30.2148H59.3599L59.4207 30.4117L61.8474 37.9708H62.1301H62.2697L65.4659 30.877L65.2905 30.2184V30.2148ZM55.8452 30.2148H51.3534L47.9138 37.9637H52.6096C52.7886 37.9637 52.9676 37.9171 53.1179 37.8527C53.2396 37.799 53.3183 37.7561 53.3255 37.7454L55.0327 33.9014L55.8488 30.2184L55.8452 30.2148Z" fill="#F4F4F4"/>
<path fill-rule="evenodd" clip-rule="evenodd" d="M92.1948 30.2148H98.1004C98.0933 30.3079 98.1004 30.401 98.1183 30.4904C98.1792 30.7839 98.3653 31.0023 98.6373 31.1454C98.8449 31.2528 99.1062 31.3136 99.3961 31.3244C99.9759 31.3423 100.738 31.1633 101.458 30.7625H101.468C101.468 30.7625 101.504 30.7374 101.518 30.7267C101.594 30.6801 101.783 30.5656 102.338 30.2184H107.911C106.59 31.0416 104.98 32.0402 102.499 33.5792L95.4161 37.9708H94.9544C94.5356 37.9744 93.8162 37.9744 92.5528 37.9744C89.8398 37.9744 92.4669 37.9744 88.9199 37.9744C88.8591 37.9744 88.809 37.9673 88.7625 37.9601L92.1948 30.2256V30.2148ZM115.069 30.2148H120.907L117.471 37.9673H111.801C111.741 37.9673 111.69 37.9601 111.644 37.9529L115.073 30.2184L115.069 30.2148Z" fill="#F4F4F4"/>
<path fill-rule="evenodd" clip-rule="evenodd" d="M135.767 30.2145H130.245L129.862 30.5975C128.287 32.1723 126.766 33.6863 123.527 36.9111L122.474 37.9562H128.047L135.771 30.2145H135.767ZM151.426 30.2145H144.908L145.775 37.9598H145.982C146.455 37.9598 147.285 37.9598 148.76 37.9598H152.332L152.049 35.5617C151.748 32.9991 151.591 31.6676 151.426 30.2109V30.2145Z" fill="#F4F4F4"/>
<path fill-rule="evenodd" clip-rule="evenodd" d="M183.152 30.2148H189.032L185.657 37.9923H179.955C179.891 37.9923 179.837 37.9852 179.791 37.978L181.298 34.5062C181.369 34.3452 181.401 34.1913 181.401 34.0445C181.401 33.8334 181.337 33.6437 181.215 33.479C181.108 33.3323 180.954 33.2142 180.764 33.1318C180.56 33.0424 180.31 32.9923 180.023 32.9923H172.944C172.518 32.9923 172.106 33.0853 171.756 33.1963C171.405 33.3072 171.14 33.4289 170.979 33.5005L170.753 33.6007C170.728 33.6115 170.707 33.6258 170.685 33.6401L163.545 38.3216H156.841L162.35 34.857C162.858 34.5384 163.205 34.1555 163.352 33.794C163.413 33.6437 163.441 33.4898 163.438 33.3394V33.3323C163.434 33.1641 163.384 33.003 163.294 32.8598C163.18 32.6773 163.005 32.5341 162.765 32.4339L162.622 32.3766C161.781 32.0116 161.197 31.5212 160.904 30.9557C160.782 30.7231 160.71 30.4761 160.685 30.2148H167.471C167.607 30.3222 167.765 30.4189 167.944 30.494C168.295 30.6443 168.731 30.7267 169.229 30.7267H182.604C182.829 30.7267 183.023 30.5799 183.087 30.3759L183.155 30.2148H183.152Z" fill="#F4F4F4"/>
</g>
<defs>
<clipPath id="clip0_11_983">
<rect width="199" height="47" fill="white"/>
</clipPath>
</defs>
</svg>
