<svg width="139" height="34" viewBox="0 0 139 34" fill="none" xmlns="http://www.w3.org/2000/svg">
<g clip-path="url(#clip0_88_4326)">
<path fill-rule="evenodd" clip-rule="evenodd" d="M30.8773 25.1488L33.5598 20.1183L34.4623 18.422L33.0498 18.2192C32.5673 18.1482 32.0948 18.0772 31.6323 18.0037V0.713867L19.2198 6.70533C19.1023 6.75858 18.9848 6.81183 18.8673 6.86507C18.5648 6.99945 18.2723 7.1313 17.9798 7.26822L17.6648 7.11609L4.4023 0.716405V9.36256C2.1248 10.6658 0.944803 12.1567 0.892303 13.7997C0.839803 15.4935 2.0198 17.1416 4.4023 18.706V20.0473C4.4023 21.5382 5.0998 22.9733 6.2648 23.881L18.0173 33.0394L26.7848 26.2061L26.8323 26.163C27.8873 26.3887 28.8748 26.5915 29.9923 26.8146L30.8798 25.1513L30.8773 25.1488Z" fill="#9C9D9D"/>
<path fill-rule="evenodd" clip-rule="evenodd" d="M30.5652 24.979L33.9102 18.7061C33.3677 18.6275 32.8277 18.5489 32.2852 18.4677L31.2777 18.3131V1.28191L19.3702 7.02743H19.3627L18.5627 7.39001C18.4077 7.461 18.2627 7.52693 18.1252 7.59032L17.9752 7.66131C13.5702 5.534 9.16272 3.40922 4.75522 1.28191V9.56804L4.57272 9.67199C3.47522 10.3008 2.64522 10.9702 2.08522 11.6776C1.54772 12.3571 1.26522 13.0696 1.24272 13.81C1.21772 14.5732 1.47772 15.3364 2.01772 16.0894C2.57772 16.8729 3.43772 17.6462 4.59272 18.4044L4.75522 18.5109V20.0448C4.75522 20.737 4.91522 21.414 5.21272 22.0226C5.51022 22.6336 5.94022 23.1762 6.48022 23.5971L18.0177 32.5881L26.5527 25.9374L26.7352 25.7777L26.9052 25.8132C27.4802 25.9349 27.9877 26.0439 28.4577 26.1403C28.8152 26.2138 29.2627 26.3051 29.8052 26.4116L30.5677 24.9815L30.5652 24.979ZM33.7502 20.5139L30.1777 27.2153L29.9227 27.1646C29.4627 27.0733 28.9427 26.9669 28.3177 26.8401C27.8152 26.7361 27.3552 26.6398 26.9202 26.5485L18.0152 33.4882L6.04772 24.1626C5.42022 23.6732 4.92022 23.0444 4.57772 22.3395C4.23272 21.6321 4.04522 20.8461 4.04522 20.0448V18.8963C2.89772 18.1229 2.02772 17.3268 1.44272 16.5103C0.810219 15.6254 0.505219 14.7152 0.535219 13.7872C0.565219 12.8845 0.897719 12.03 1.53272 11.2288C2.11522 10.4935 2.95272 9.8013 4.04272 9.15474V0.145996L17.9777 6.87276L18.2702 6.73838L19.0652 6.38087L31.9827 0.145996V17.6944L32.3852 17.7553L33.0977 17.8618L35.0127 18.1381L33.7477 20.5114L33.7502 20.5139Z" fill="#2B2A28"/>
<path fill-rule="evenodd" clip-rule="evenodd" d="M24.0478 21.726C26.0278 22.1773 28.1628 22.6337 30.4528 23.0875L29.5003 24.8726C17.9678 22.5373 9.98533 20.0373 5.75033 17.4308C3.69783 16.1681 2.63283 14.9307 2.66783 13.8531C2.70033 12.8338 3.76783 11.7182 5.67283 10.7091C5.80033 10.6431 5.93283 10.5747 6.06533 10.5088L6.17783 10.4555C8.45783 9.35256 11.6853 8.42455 15.3528 7.8211L17.4903 7.47119L17.4753 7.50415C15.1903 8.61979 12.2903 10.3541 12.6478 12.6995C12.9253 14.525 15.1228 15.9931 19.5578 17.3243C22.6603 18.2548 26.7928 19.1042 32.1453 19.9105L31.3778 21.3507C29.4303 20.9932 27.2628 20.5774 25.0703 20.1134L24.0478 21.7285V21.726Z" fill="#293241"/>
<path fill-rule="evenodd" clip-rule="evenodd" d="M6.17969 19.7432C10.1172 21.8096 16.2722 23.7924 24.5547 25.6636L18.0147 30.7601L7.34719 22.446C6.61719 21.8755 6.17969 20.978 6.17969 20.0449V19.7432Z" fill="#FF6933"/>
<path fill-rule="evenodd" clip-rule="evenodd" d="M6.17969 8.47769V3.57397L12.3672 6.56083C10.0122 7.08062 7.90219 7.73479 6.17969 8.48023V8.47769Z" fill="#FF6933"/>
<path fill-rule="evenodd" clip-rule="evenodd" d="M29.8501 17.7172C25.8176 17.0453 22.5376 16.3328 20.0651 15.5924C15.1726 14.1269 14.4801 12.8895 14.4101 12.4255C14.3626 12.1213 14.4976 11.0234 17.9801 9.26878L19.9676 8.34331C20.5551 8.07708 21.1676 7.7931 21.8501 7.43559L29.8526 3.57397V17.7172H29.8501Z" fill="#FF6933"/>
<path fill-rule="evenodd" clip-rule="evenodd" d="M14.8151 8.48551L14.7851 8.38916C13.1451 8.84302 11.7301 9.29688 10.5376 9.75582L11.1576 9.99162C12.1376 9.48958 13.3576 8.98755 14.8151 8.48551ZM16.0801 17.8695L15.1226 19.3782C17.0826 19.9892 19.3501 20.6054 21.9176 21.2266L22.9451 19.6495C20.8101 19.1677 18.7076 18.6454 16.8126 18.0901C16.5626 18.0166 16.3201 17.9431 16.0826 17.8695H16.0801ZM13.6376 18.8989L14.6151 17.3979C12.9001 16.8147 11.5251 16.229 10.4926 15.6433L8.99515 17.0074C9.78265 17.4131 10.7101 17.8239 11.7776 18.2321C12.3551 18.4527 12.9751 18.6758 13.6376 18.8989ZM5.67265 13.7087C5.65515 13.2523 5.82015 12.8061 6.17015 12.3623L8.22015 12.621C8.17515 12.7883 8.15765 12.9582 8.17015 13.1255C8.21515 13.7214 8.62515 14.3172 9.39265 14.9156L7.80765 16.3254C6.42265 15.4405 5.70765 14.5632 5.67265 13.7062V13.7087ZM6.92015 11.6321L8.60514 11.8654C9.00014 11.3456 9.66265 10.8233 10.5876 10.2984L9.85265 10.0297C8.58265 10.557 7.60764 11.092 6.91764 11.6321H6.92015Z" fill="#9C9D9D"/>
<path fill-rule="evenodd" clip-rule="evenodd" d="M22.1624 26.0312L17.7924 27.3193L11.5874 24.3806L17.9324 29.1069L22.1624 26.0312Z" fill="white"/>
<path fill-rule="evenodd" clip-rule="evenodd" d="M18.71 11.2819C20.12 10.1866 24.515 7.59021 27.0775 6.23877C19.5325 9.22309 14.95 11.8499 16.29 12.9326C17.63 14.0152 23.395 15.6608 28.1975 16.3276C22.235 14.6593 17.3 12.3798 18.71 11.2819Z" fill="white"/>
<path fill-rule="evenodd" clip-rule="evenodd" d="M54.2028 27.6054H58.6828L64.3203 14.7224H59.4503C59.1878 14.7224 58.8878 14.8314 58.7228 14.9785C58.7153 14.9836 48.6553 23.4675 43.7478 27.6054H47.9828C48.2378 27.6054 48.5353 27.5015 48.7053 27.3544C48.8603 27.2175 47.3953 28.4574 57.5803 19.8847C55.9603 23.5866 56.0228 23.4446 54.2003 27.6054H54.2028ZM119.315 14.7224H138.818C138.573 14.976 134.69 16.7458 134.468 16.9714L134.438 17.0399H120.753C119.575 17.0399 118.245 17.7828 117.92 18.5409C116.688 21.4238 117.11 20.4451 117.015 20.653C116.75 21.2844 117.26 21.761 118.2 21.761H127.543C127.97 20.7595 127.695 21.4061 128.77 18.8858C130.35 18.442 132.735 17.7752 134.313 17.3315L129.908 27.6257H125.695C125.33 27.6257 125.123 27.4229 125.195 27.2555L126.308 24.6516C126.45 24.3169 126.218 24.0811 125.74 24.0811H120.795C120.285 24.0785 119.783 24.3093 119.568 24.4081L119.41 24.4791C119.17 24.6389 114.548 27.7145 114.335 27.8539H108.503C108.43 27.8539 108.39 27.8387 108.37 27.821L113.205 24.7378C113.818 24.3473 114 23.8453 113.553 23.6602C112.123 23.077 111.548 21.9842 112.05 20.8077L113.423 17.6002C114.17 15.8558 116.87 14.7224 119.31 14.7224H119.315ZM89.5828 27.6004C90.3553 26.8144 101.548 15.4324 102.245 14.7224H97.8528C97.5803 14.7224 97.2528 14.8466 97.0903 15.0115C89.5853 22.6637 91.3103 20.9142 84.6853 27.6004H89.5803H89.5828ZM105.375 14.7224C106.22 22.7372 106.008 20.8128 106.795 27.6004C101.163 27.6004 101.583 27.6055 101.5 27.5852L100.618 19.5754C101.765 16.908 101.298 17.9932 102.708 14.7224H105.375ZM62.1103 27.6054C61.7453 27.6054 61.5403 27.4026 61.6128 27.2353L67.0853 14.7224H71.2753C71.6403 14.7224 71.8453 14.9252 71.7728 15.0926L68.9203 21.614C68.6378 22.2631 69.7128 22.3873 70.7003 21.8244C70.7703 21.7839 70.1978 22.1439 81.8928 14.7427C82.0178 14.7097 83.8028 14.7249 91.2878 14.7249C91.1253 14.8898 87.1828 16.7052 86.9378 16.9537C86.7028 17.4937 82.5378 27.0147 82.2803 27.6054H78.0903C77.7253 27.6054 77.5203 27.4026 77.5928 27.2353L80.1203 21.4517C83.2103 17.9273 82.2303 19.0455 84.8878 16.0155C74.7253 22.6282 79.0978 19.834 66.7803 27.5852C66.6678 27.6131 66.9703 27.6054 62.1128 27.6054H62.1103ZM43.7253 27.6054C43.0553 27.6054 43.0178 27.6105 42.9378 27.5877C40.7353 20.6277 41.4028 22.7448 40.0778 18.513C39.9253 19.2128 38.9378 23.7388 38.7753 24.4766L37.5678 27.2353C37.4953 27.4026 37.1128 27.6054 36.7478 27.6054H32.9253C32.9928 27.4482 37.4953 17.1641 37.5778 16.9714C37.5553 16.7559 35.2353 15.2878 35.1753 14.7224H44.1103L46.1003 22.2529C44.7153 25.3716 45.5003 23.6018 43.7228 27.6054H43.7253Z" fill="#2B2A28"/>
<path fill-rule="evenodd" clip-rule="evenodd" d="M35.6274 11.1933H38.1274L39.2349 9.8824H43.9074L44.2124 11.1933H46.6249L44.9674 3.84276H42.0124L35.6299 11.1933H35.6274ZM40.5074 8.35094L42.9699 5.41986L43.6149 8.35094H40.5074ZM47.6324 11.1933H54.4774C55.3149 11.1933 55.8174 11.1172 56.2074 10.9397C56.8574 10.6304 57.3249 10.0472 57.5974 9.17752C57.8124 8.49547 57.7899 8.0416 57.5224 7.78805C57.3174 7.61056 57.0524 7.52435 56.4174 7.46857C56.9674 7.37983 57.2074 7.30377 57.4799 7.12628C57.8749 6.87273 58.1674 6.4214 58.3724 5.76977C58.6424 4.91022 58.5524 4.40312 58.0699 4.10646C57.7474 3.91883 57.3274 3.84276 56.4799 3.84276H49.9399L47.6324 11.1933ZM51.1724 6.77384L51.5799 5.47311H55.2299C55.6524 5.47311 55.7599 5.48325 55.8849 5.52889C56.0974 5.61763 56.1674 5.83823 56.0749 6.13488C55.9949 6.38844 55.8249 6.58621 55.6199 6.68509C55.4574 6.75101 55.2999 6.77384 54.8749 6.77384H51.1699H51.1724ZM50.2974 9.56038L50.7199 8.21656H54.6099C55.0999 8.21656 55.1824 8.2267 55.2999 8.27234C55.5124 8.36108 55.5724 8.58167 55.4724 8.90115C55.3749 9.21049 55.1749 9.43107 54.9349 9.50714C54.7799 9.55024 54.6899 9.56292 54.2449 9.56292H50.2999L50.2974 9.56038ZM61.3774 11.1907H63.5824L65.3199 5.6582H68.5474L69.1174 3.84022H60.4574L59.8874 5.6582H63.1149L61.3774 11.1907ZM75.2149 3.76416C77.2999 3.76416 77.9349 3.78698 78.4174 3.87319C79.4699 4.08364 79.8299 4.66681 79.6124 5.84583C79.5624 6.14249 79.3974 6.73834 79.1174 7.63085C78.5599 9.40572 78.1499 10.1207 77.3674 10.638C76.8149 11.0132 76.1524 11.1882 75.0849 11.2338C74.6874 11.2567 73.7174 11.2668 73.0099 11.2668C71.2824 11.2668 70.4124 11.2338 70.0049 11.1451C69.2449 11.0006 68.8749 10.6938 68.7749 10.1537C68.6624 9.61364 68.7674 9.07357 69.2724 7.46604C69.6599 6.23124 69.7774 5.92443 70.0649 5.42747C70.5174 4.64399 71.0724 4.22563 71.9624 3.98475C72.6274 3.80726 73.3024 3.76416 75.2149 3.76416ZM74.8249 5.55931C73.2049 5.55931 72.7424 5.6151 72.3949 5.82301C72.0299 6.05375 71.8274 6.41887 71.4949 7.47618C71.1549 8.55632 71.1174 8.95186 71.3174 9.18513C71.5349 9.42854 71.8799 9.47165 73.5424 9.47165C75.4449 9.47165 75.8549 9.40572 76.2174 9.05328C76.5074 8.78958 76.6799 8.41433 76.9874 7.43308C77.5699 5.58214 77.5424 5.55931 74.8274 5.55931H74.8249ZM93.5149 11.1907L95.8224 3.84022H93.6174L91.8799 9.37276H88.2949L90.0324 3.84022H87.8274L86.0899 9.37276H82.5149L84.2524 3.84022H82.0474L79.7399 11.1907H93.5174H93.5149ZM95.3949 11.1907L97.7024 3.84022H99.9074L99.0449 6.58367H100.197L104.057 3.84022H107.087L101.785 7.47618L105.182 11.1907H101.977L99.5924 8.36869H98.4849L97.5999 11.1907H95.3949ZM113.015 3.76416C111.102 3.76416 110.427 3.80726 109.762 3.98475C108.872 4.22816 108.315 4.64652 107.865 5.42747C107.58 5.92443 107.46 6.23124 107.072 7.46604C106.567 9.07357 106.462 9.61364 106.575 10.1537C106.677 10.6938 107.047 11.0031 107.807 11.1451C108.215 11.2338 109.085 11.2668 110.812 11.2668C111.517 11.2668 112.49 11.2567 112.887 11.2338C113.955 11.1907 114.62 11.0132 115.17 10.638C115.952 10.1207 116.362 9.40318 116.92 7.63085C117.2 6.73834 117.365 6.14249 117.415 5.84583C117.632 4.66681 117.272 4.08364 116.22 3.87319C115.737 3.78444 115.102 3.76416 113.017 3.76416H113.015ZM112.625 5.55931C115.34 5.55931 115.367 5.58214 114.785 7.43308C114.477 8.41433 114.305 8.78958 114.015 9.05328C113.655 9.40572 113.242 9.47165 111.34 9.47165C109.677 9.47165 109.332 9.42854 109.115 9.18513C108.915 8.9544 108.955 8.55632 109.292 7.47618C109.625 6.41887 109.825 6.05375 110.192 5.82301C110.54 5.61256 111.002 5.55931 112.622 5.55931H112.625ZM121.895 5.6582L121.295 7.56492C120.802 9.12934 120.415 9.81394 119.7 10.3971C118.985 10.9803 118.185 11.2465 117.162 11.2465H116.967L117.515 9.50461C117.895 9.50461 118.255 9.29416 118.53 8.89861C118.727 8.6121 118.855 8.31544 119.062 7.65367L120.26 3.84022H129.125L126.817 11.1907H124.612L126.35 5.6582H121.895ZM127.837 11.1907H130.337L131.445 9.87986H136.117L136.422 11.1907H138.835L137.177 3.84022H134.222L127.84 11.1907H127.837ZM132.717 8.3484L135.18 5.41732L135.825 8.3484H132.717Z" fill="#FF6933"/>
<path fill-rule="evenodd" clip-rule="evenodd" d="M60.8578 21.7563H57.1478L54.7453 27.2458H58.4553L60.8578 21.7563ZM54.8053 21.7563L51.6203 24.4364C50.9428 24.9562 49.9428 25.7878 48.5403 27.0277L48.4978 27.0632L48.4103 27.1291C48.3678 27.1545 48.3153 27.1773 48.2603 27.1976C48.1678 27.2306 48.0703 27.2483 47.9828 27.2483H44.7253L51.2353 21.7589H54.8003L54.8053 21.7563ZM45.6053 21.7563H41.4628L41.5053 21.8958L43.2003 27.2509H43.3978H43.4953L45.7278 22.2254L45.6053 21.7589V21.7563ZM39.0078 21.7563H35.8703L33.4678 27.2458H36.7478C36.8728 27.2458 36.9978 27.2128 37.1028 27.1672C37.1878 27.1291 37.2428 27.0987 37.2478 27.0911L38.4403 24.368L39.0103 21.7589L39.0078 21.7563Z" fill="#9D9F9E"/>
<path fill-rule="evenodd" clip-rule="evenodd" d="M64.3975 21.7563H68.5225C68.5175 21.8223 68.5225 21.8882 68.535 21.9516C68.5775 22.1595 68.7075 22.3142 68.8975 22.4156C69.0425 22.4917 69.225 22.5348 69.4275 22.5424C69.8325 22.555 70.365 22.4283 70.8675 22.1443H70.875C70.875 22.1443 70.9 22.1265 70.91 22.1189C70.9625 22.086 71.095 22.0048 71.4825 21.7589H75.375C74.4525 22.3421 73.3275 23.0495 71.595 24.1397L66.6475 27.2509H66.325C66.0325 27.2534 65.53 27.2534 64.6475 27.2534C62.7525 27.2534 64.5875 27.2534 62.11 27.2534C62.0675 27.2534 62.0325 27.2483 62 27.2432L64.3975 21.764V21.7563ZM80.375 21.7563H84.4525L82.0525 27.2483H78.0925C78.05 27.2483 78.015 27.2432 77.9825 27.2382L80.3775 21.7589L80.375 21.7563Z" fill="#9D9F9E"/>
<path fill-rule="evenodd" clip-rule="evenodd" d="M94.8328 21.7567H90.9753L90.7078 22.028C89.6078 23.1436 88.5454 24.2162 86.2829 26.5007L85.5479 27.241H89.4404L94.8354 21.7567H94.8328ZM105.77 21.7567H101.218L101.823 27.2436H101.968C102.298 27.2436 102.878 27.2436 103.908 27.2436H106.403L106.205 25.5448C105.995 23.7293 105.885 22.7861 105.77 21.7542V21.7567Z" fill="#9D9F9E"/>
<path fill-rule="evenodd" clip-rule="evenodd" d="M127.93 21.7563H132.038L129.68 27.2661H125.698C125.653 27.2661 125.615 27.261 125.583 27.2559L126.635 24.7965C126.685 24.6824 126.708 24.5733 126.708 24.4694C126.708 24.3198 126.663 24.1854 126.578 24.0688C126.503 23.9648 126.395 23.8811 126.263 23.8228C126.12 23.7594 125.945 23.7239 125.745 23.7239H120.8C120.503 23.7239 120.215 23.7898 119.97 23.8685C119.725 23.9471 119.54 24.0333 119.428 24.084L119.27 24.155C119.253 24.1626 119.238 24.1727 119.223 24.1829L114.235 27.4993H109.553L113.4 25.0449C113.755 24.8193 113.998 24.548 114.1 24.2919C114.143 24.1854 114.163 24.0764 114.16 23.9699V23.9648C114.158 23.8456 114.123 23.7315 114.06 23.6301C113.98 23.5008 113.858 23.3994 113.69 23.3284L113.59 23.2878C113.003 23.0292 112.595 22.6818 112.39 22.2812C112.305 22.1164 112.255 21.9414 112.238 21.7563H116.978C117.073 21.8324 117.183 21.9009 117.308 21.9541C117.553 22.0606 117.858 22.1189 118.205 22.1189H127.548C127.705 22.1189 127.84 22.015 127.885 21.8704L127.933 21.7563H127.93Z" fill="#9D9F9E"/>
</g>
<defs>
<clipPath id="clip0_88_4326">
<rect width="139" height="34" fill="white"/>
</clipPath>
</defs>
</svg>
