<svg width="30" height="30" viewBox="0 0 30 30" fill="none" xmlns="http://www.w3.org/2000/svg">
<path fill-rule="evenodd" clip-rule="evenodd" d="M15 0C8.37244 0 3 5.37234 3 11.9998C3 15.3124 4.34283 18.3121 6.51304 20.4833C8.68432 22.6557 13.8001 25.7994 14.1001 29.1001C14.1456 29.595 14.504 30 15 30C15.4971 30 15.8555 29.595 15.901 29.1001C16.201 25.7994 21.3157 22.6557 23.487 20.4833C25.6582 18.3121 27 15.3124 27 11.9998C27 5.37234 21.6276 0 15 0Z" fill="#FF4433"/>
<path fill-rule="evenodd" clip-rule="evenodd" d="M15.0336 16.2461C17.3598 16.2461 19.245 14.3598 19.245 12.0347C19.245 9.70859 17.3598 7.82227 15.0336 7.82227C12.7075 7.82227 10.8223 9.70859 10.8223 12.0347C10.8223 14.3598 12.7075 16.2461 15.0336 16.2461Z" fill="white"/>
</svg>
