<svg width="60" height="36" viewBox="0 0 60 36" fill="none" xmlns="http://www.w3.org/2000/svg">
<path d="M51.2403 10.2744H41.2566C41.8382 13.57 45.0368 16.6718 48.5263 16.6718H56.4745C56.5715 16.381 56.5714 15.8963 56.5714 15.6055C56.5714 12.6977 54.1482 10.2744 51.2403 10.2744Z" fill="url(#paint0_linear_60_2178)"/>
<path d="M42.1289 17.2529V25.2981H46.9754V21.0332H51.2403C53.5666 21.0332 55.6021 19.3854 56.2806 17.2529H42.1289Z" fill="#4FAD50"/>
<path d="M25.0693 10.2744V25.2016H29.3343C29.3343 25.2016 30.4005 25.2016 30.982 24.1353C33.8899 18.4165 34.7623 16.6718 34.7623 16.6718H35.3439V25.2016H40.1903V10.2744H35.9254C35.9254 10.2744 34.8592 10.3713 34.2776 11.3406C31.8544 16.284 30.4974 18.8042 30.4974 18.8042H29.9158V10.2744H25.0693Z" fill="#4FAD50"/>
<path d="M4.71436 25.2972V10.3701H9.56083C9.56083 10.3701 10.9179 10.3701 11.6933 12.5026C13.6319 18.1245 13.8257 18.8999 13.8257 18.8999C13.8257 18.8999 14.2134 17.5429 15.9582 12.5026C16.7336 10.3701 18.0906 10.3701 18.0906 10.3701H22.9371V25.2972H18.0906V17.2521H17.5091L14.795 25.2972H12.6626L9.94857 17.2521H9.36699V25.2972H4.71436Z" fill="#4FAD50"/>
<defs>
<linearGradient id="paint0_linear_60_2178" x1="41.2393" y1="13.5189" x2="56.5371" y2="13.5189" gradientUnits="userSpaceOnUse">
<stop stop-color="#27B1E6"/>
<stop offset="1" stop-color="#148ACA"/>
</linearGradient>
</defs>
</svg>
