<svg width="60" height="36" viewBox="0 0 60 36" fill="none" xmlns="http://www.w3.org/2000/svg">
<path d="M54.6858 9.68555H51.0001C49.8858 9.68555 49.0287 10.0284 48.5144 11.1427L41.4858 27.1713H46.4573C46.4573 27.1713 47.3144 25.0284 47.4858 24.5141C48.0001 24.5141 52.8858 24.5141 53.5716 24.5141C53.743 25.1141 54.1716 27.0855 54.1716 27.0855H58.6287L54.6858 9.68555ZM48.8573 20.9141C49.2858 19.8855 50.743 16.0284 50.743 16.0284C50.743 16.1141 51.1716 14.9998 51.343 14.3998L51.6858 15.9427C51.6858 15.9427 52.6287 20.1427 52.8001 20.9998H48.8573V20.9141Z" fill="#5E89CC"/>
<path d="M41.8285 21.4287C41.8285 25.0287 38.5714 27.4287 33.5142 27.4287C31.3714 27.4287 29.3142 27.0001 28.2 26.4859L28.8857 22.543L29.4857 22.8001C31.0285 23.4859 32.0571 23.743 33.9428 23.743C35.3142 23.743 36.7714 23.2287 36.7714 22.0287C36.7714 21.2573 36.1714 20.743 34.2857 19.8859C32.4857 19.0287 30.0857 17.6573 30.0857 15.1716C30.0857 11.743 33.4285 9.42871 38.1428 9.42871C39.9428 9.42871 41.4857 9.77157 42.4285 10.2001L41.7428 13.9716L41.3999 13.6287C40.5428 13.2859 39.4285 12.943 37.7999 12.943C35.9999 13.0287 35.1428 13.8001 35.1428 14.4859C35.1428 15.2573 36.1714 15.8573 37.7999 16.6287C40.5428 17.9144 41.8285 19.3716 41.8285 21.4287Z" fill="#5E89CC"/>
<path d="M0 9.85653L0.0857143 9.51367H7.45714C8.48571 9.51367 9.25714 9.85653 9.51429 10.9708L11.1429 18.6851C9.51429 14.5708 5.74286 11.228 0 9.85653Z" fill="#F9B50B"/>
<path d="M21.5144 9.6863L14.0572 27.0863H9.00007L4.71436 12.5149C7.80007 14.4863 10.3715 17.572 11.3144 19.7149L11.8286 21.5149L16.4572 9.60059H21.5144V9.6863Z" fill="#5E89CC"/>
<path d="M23.4858 9.60059H28.2001L25.2001 27.0863H20.4858L23.4858 9.60059Z" fill="#5E89CC"/>
</svg>
