<svg width="26" height="39" viewBox="0 0 26 39" fill="none" xmlns="http://www.w3.org/2000/svg">
<path fill-rule="evenodd" clip-rule="evenodd" d="M0.5 13.75C0.5 23.125 13 37.7083 13 37.7083C13 37.7083 25.5 23.125 25.5 13.75C25.5 6.85417 19.8958 1.25 13 1.25C6.10417 1.25 0.5 6.85417 0.5 13.75ZM18.2084 13.7503C18.2084 16.6268 15.8766 18.9587 13.0001 18.9587C10.1236 18.9587 7.79175 16.6268 7.79175 13.7503C7.79175 10.8738 10.1236 8.54199 13.0001 8.54199C15.8766 8.54199 18.2084 10.8738 18.2084 13.7503Z" fill="#FF6933"/>
<path d="M13 37.7083L12.6204 38.0337C12.7154 38.1446 12.854 38.2083 13 38.2083C13.146 38.2083 13.2846 38.1446 13.3796 38.0337L13 37.7083ZM13 37.7083C13.3796 37.3829 13.3796 37.3829 13.3796 37.3829C13.3795 37.3828 13.3794 37.3827 13.3793 37.3825C13.3789 37.3821 13.3784 37.3816 13.3778 37.3807C13.3764 37.3791 13.3743 37.3766 13.3714 37.3733C13.3657 37.3666 13.357 37.3564 13.3454 37.3428C13.3223 37.3155 13.2878 37.2747 13.2426 37.2209C13.1523 37.1132 13.0192 36.9534 12.8496 36.7465C12.5104 36.3325 12.025 35.7299 11.4422 34.9771C10.2763 33.4711 8.72241 31.3668 7.16948 28.9727C5.61563 26.5772 4.06855 23.9004 2.91139 21.2486C1.75108 18.5895 1 15.9939 1 13.75H0C0 16.1936 0.811424 18.9365 1.99486 21.6485C3.18145 24.3678 4.75937 27.0947 6.33052 29.5169C7.90259 31.9405 9.47374 34.068 10.6515 35.5893C11.2406 36.3502 11.7318 36.9601 12.0762 37.3803C12.2484 37.5904 12.3839 37.7532 12.4766 37.8637C12.523 37.9189 12.5586 37.9611 12.5829 37.9897C12.595 38.0039 12.6042 38.0148 12.6105 38.0222C12.6136 38.0259 12.616 38.0287 12.6177 38.0306C12.6185 38.0316 12.6192 38.0323 12.6196 38.0328C12.6198 38.0331 12.62 38.0333 12.6201 38.0334C12.6203 38.0336 12.6204 38.0337 13 37.7083ZM25 13.75C25 15.9939 24.2489 18.5895 23.0886 21.2486C21.9314 23.9004 20.3844 26.5772 18.8305 28.9727C17.2776 31.3668 15.7237 33.4711 14.5578 34.9771C13.975 35.7299 13.4896 36.3325 13.1504 36.7465C12.9808 36.9534 12.8477 37.1132 12.7574 37.2209C12.7122 37.2747 12.6777 37.3155 12.6546 37.3428C12.643 37.3564 12.6343 37.3666 12.6286 37.3733C12.6257 37.3766 12.6236 37.3791 12.6222 37.3807C12.6216 37.3816 12.6211 37.3821 12.6207 37.3825C12.6206 37.3827 12.6205 37.3828 12.6204 37.3829C12.6204 37.3829 12.6204 37.3829 13 37.7083C13.3796 38.0337 13.3797 38.0336 13.3799 38.0334C13.38 38.0333 13.3802 38.0331 13.3804 38.0328C13.3808 38.0323 13.3815 38.0316 13.3823 38.0306C13.384 38.0287 13.3864 38.0259 13.3895 38.0222C13.3958 38.0148 13.405 38.0039 13.4171 37.9897C13.4414 37.9611 13.477 37.9189 13.5234 37.8637C13.6161 37.7532 13.7516 37.5904 13.9238 37.3803C14.2682 36.9601 14.7594 36.3502 15.3485 35.5893C16.5263 34.068 18.0974 31.9405 19.6695 29.5169C21.2406 27.0947 22.8186 24.3678 24.0051 21.6485C25.1886 18.9365 26 16.1936 26 13.75H25ZM13 1.75C19.6197 1.75 25 7.13031 25 13.75H26C26 6.57802 20.172 0.75 13 0.75V1.75ZM1 13.75C1 7.13031 6.38031 1.75 13 1.75V0.75C5.82802 0.75 0 6.57802 0 13.75H1ZM13.0001 19.4587C16.1527 19.4587 18.7084 16.903 18.7084 13.7503H17.7084C17.7084 16.3507 15.6004 18.4587 13.0001 18.4587V19.4587ZM7.29175 13.7503C7.29175 16.903 9.84746 19.4587 13.0001 19.4587V18.4587C10.3997 18.4587 8.29175 16.3507 8.29175 13.7503H7.29175ZM13.0001 8.04199C9.84746 8.04199 7.29175 10.5977 7.29175 13.7503H8.29175C8.29175 11.15 10.3997 9.04199 13.0001 9.04199V8.04199ZM18.7084 13.7503C18.7084 10.5977 16.1527 8.04199 13.0001 8.04199V9.04199C15.6004 9.04199 17.7084 11.15 17.7084 13.7503H18.7084Z" fill="black"/>
</svg>
