<svg width="80" height="80" viewBox="0 0 80 80" fill="none" xmlns="http://www.w3.org/2000/svg">
<g clip-path="url(#clip0_161_2919)">
<circle opacity="0.45" cx="40" cy="40" r="40" fill="white"/>
<path fill-rule="evenodd" clip-rule="evenodd" d="M73.3337 40.0003C73.3337 58.4103 58.4103 73.3337 40.0003 73.3337C21.5903 73.3337 6.66699 58.4103 6.66699 40.0003C6.66699 21.5903 21.5903 6.66699 40.0003 6.66699C58.4103 6.66699 73.3337 21.5903 73.3337 40.0003ZM33.334 30.1861V40.0008V49.8154C33.334 50.5852 34.1673 51.0663 34.834 50.6814L43.334 45.7741L51.8339 40.8668C52.5006 40.4819 52.5006 39.5196 51.8339 39.1347L43.334 34.2274L34.834 29.3201C34.1673 28.9352 33.334 29.4163 33.334 30.1861Z" fill="#FF6933"/>
</g>
<defs>
<clipPath id="clip0_161_2919">
<rect width="80" height="80" fill="white"/>
</clipPath>
</defs>
</svg>
